<svg width="67" height="72" viewBox="0 0 67 72" fill="none" xmlns="http://www.w3.org/2000/svg">
<g clip-path="url(#clip0_2645_1094)">
<g clip-path="url(#clip1_2645_1094)">
<path d="M38.0332 24.4531C40.5185 24.4531 42.5332 22.4384 42.5332 19.9531C42.5332 17.4678 40.5185 15.4531 38.0332 15.4531C35.5479 15.4531 33.5332 17.4678 33.5332 19.9531C33.5332 22.4384 35.5479 24.4531 38.0332 24.4531Z" fill="#F68820"/>
</g>
<path d="M62.3332 65.8531L42.5332 39.4528V20.5156C42.5332 19.2736 41.5252 18.2656 40.2832 18.2656C39.0412 18.2656 38.0332 19.2736 38.0332 20.5156V39.4528L18.2332 65.8531C17.4874 66.8476 17.6899 68.2584 18.6832 69.0031C19.0882 69.308 19.5619 69.4531 20.0321 69.4531C20.7161 69.4531 21.3911 69.1426 21.8344 68.5531L38.0344 46.9531V67.2031C38.0344 68.4451 39.0424 69.4531 40.2844 69.4531C41.5264 69.4531 42.5344 68.4451 42.5344 67.2031V46.9531L58.7344 68.5531C59.1765 69.1415 59.8526 69.4531 60.5366 69.4531C61.0057 69.4531 61.4805 69.3069 61.8855 69.0031C62.8766 68.2584 63.078 66.8476 62.3332 65.8531Z" fill="#55525B"/>
<g clip-path="url(#clip2_2645_1094)">
<path d="M33.5301 53.7032C32.5907 53.7032 31.6435 53.4096 30.8335 52.8032C28.8445 51.3115 28.4428 48.4911 29.9335 46.5021L36.6835 37.5021C38.1763 35.5142 40.9956 35.1137 42.9835 36.6021C44.9725 38.0938 45.3741 40.9142 43.8835 42.9032L37.1335 51.9032C36.2492 53.0822 34.8981 53.7032 33.5301 53.7032Z" fill="#5C76B2"/>
</g>
<g clip-path="url(#clip3_2645_1094)">
<path d="M47.0365 53.7043C45.6685 53.7043 44.3174 53.0833 43.4331 51.9044L36.6831 42.9044C35.1925 40.9154 35.5953 38.0961 37.5831 36.6032C39.5699 35.1137 42.3903 35.5131 43.8831 37.5032L50.6331 46.5032C52.1238 48.4922 51.721 51.3115 49.7331 52.8043C48.9231 53.4118 47.9759 53.7043 47.0365 53.7043Z" fill="#5C76B2"/>
</g>
<g clip-path="url(#clip4_2645_1094)">
<g clip-path="url(#clip5_2645_1094)">
<path d="M61.2962 13.4948L56.8648 12.7129C53.1939 12.066 49.6929 14.5174 49.0449 18.1883C48.3981 21.8592 50.8494 25.3602 54.5203 26.0082L58.9517 26.79C62.6226 27.4369 66.1236 24.9855 66.7716 21.3147C67.4185 17.6427 64.9671 14.1417 61.2962 13.4948Z" fill="#F68820"/>
</g>
<g clip-path="url(#clip6_2645_1094)">
<path d="M55.6914 26.1113C59.4193 26.1113 62.4414 23.0892 62.4414 19.3613C62.4414 15.6334 59.4193 12.6113 55.6914 12.6113C51.9635 12.6113 48.9414 15.6334 48.9414 19.3613C48.9414 23.0892 51.9635 26.1113 55.6914 26.1113Z" fill="#FBBE18"/>
</g>
<g clip-path="url(#clip7_2645_1094)">
<path d="M54.9108 23.7929L39.4004 21.0581L40.963 12.1953L56.4734 14.9302C58.9214 15.3622 60.5549 17.6954 60.124 20.1434C59.692 22.5892 57.3588 24.2238 54.9108 23.7929Z" fill="#6FA4D8"/>
</g>
<g clip-path="url(#clip8_2645_1094)">
<path d="M39.4004 21.0583L54.9108 23.7932C57.3588 24.2252 59.692 22.5906 60.124 20.1426L40.1823 16.627L39.4004 21.0583Z" fill="#5C76B2"/>
</g>
<g clip-path="url(#clip9_2645_1094)">
<path d="M34.5768 22.4911L19.0664 19.7562L21.4109 6.46094L36.9213 9.19581C40.5922 9.84269 43.0435 13.3437 42.3967 17.0157C41.7498 20.6877 38.2488 23.1391 34.5768 22.4911Z" fill="#6FA4D8"/>
</g>
<g clip-path="url(#clip10_2645_1094)">
<path d="M19.0664 19.757L34.5768 22.4919C38.2477 23.1387 41.7487 20.6874 42.3967 17.0165L20.2387 13.1094L19.0664 19.757Z" fill="#5C76B2"/>
</g>
<g clip-path="url(#clip11_2645_1094)">
<path d="M17.7603 1.24957L13.3289 0.467694C7.21007 -0.611181 1.37582 3.47482 0.295819 9.59369C-0.783056 15.7126 3.30294 21.5468 9.42182 22.6268L13.8532 23.4087C19.9721 24.4876 25.8074 20.4016 26.8863 14.2827C27.9652 8.16269 23.8792 2.32844 17.7603 1.24957Z" fill="#F68820"/>
</g>
<g clip-path="url(#clip12_2645_1094)">
<path d="M11.375 22.7969C17.5882 22.7969 22.625 17.7601 22.625 11.5469C22.625 5.33367 17.5882 0.296875 11.375 0.296875C5.1618 0.296875 0.125 5.33367 0.125 11.5469C0.125 17.7601 5.1618 22.7969 11.375 22.7969Z" fill="#FBBE18"/>
</g>
<g clip-path="url(#clip13_2645_1094)">
<path d="M11.375 20.5469C16.3456 20.5469 20.375 16.5174 20.375 11.5469C20.375 6.57631 16.3456 2.54688 11.375 2.54688C6.40444 2.54688 2.375 6.57631 2.375 11.5469C2.375 16.5174 6.40444 20.5469 11.375 20.5469Z" fill="#55525B"/>
</g>
<g clip-path="url(#clip14_2645_1094)">
<path d="M10.2474 2.61719C7.30889 2.98731 4.72139 4.79856 3.36914 7.43331C3.79102 9.09832 5.14327 10.4483 6.94439 10.7667C9.39239 11.1987 11.7256 9.56407 12.1576 7.11606C12.4738 5.31494 11.6683 3.58244 10.2474 2.61719Z" fill="#B3B4B6"/>
</g>
</g>
<g clip-path="url(#clip15_2645_1094)">
<path d="M42.5332 24.4531C45.0185 24.4531 47.0332 22.4384 47.0332 19.9531C47.0332 17.4678 45.0185 15.4531 42.5332 15.4531C40.0479 15.4531 38.0332 17.4678 38.0332 19.9531C38.0332 22.4384 40.0479 24.4531 42.5332 24.4531Z" fill="#FBBE18"/>
</g>
<g clip-path="url(#clip16_2645_1094)">
<path d="M42.5332 22.2031C43.7758 22.2031 44.7832 21.1958 44.7832 19.9531C44.7832 18.7105 43.7758 17.7031 42.5332 17.7031C41.2906 17.7031 40.2832 18.7105 40.2832 19.9531C40.2832 21.1958 41.2906 22.2031 42.5332 22.2031Z" fill="#55525B"/>
</g>
<g clip-path="url(#clip17_2645_1094)">
<path d="M20.0332 71.7031C22.5185 71.7031 24.5332 69.6884 24.5332 67.2031C24.5332 64.7178 22.5185 62.7031 20.0332 62.7031C17.5479 62.7031 15.5332 64.7178 15.5332 67.2031C15.5332 69.6884 17.5479 71.7031 20.0332 71.7031Z" fill="#F68820"/>
</g>
<g clip-path="url(#clip18_2645_1094)">
<path d="M60.5332 71.7031C63.0185 71.7031 65.0332 69.6884 65.0332 67.2031C65.0332 64.7178 63.0185 62.7031 60.5332 62.7031C58.0479 62.7031 56.0332 64.7178 56.0332 67.2031C56.0332 69.6884 58.0479 71.7031 60.5332 71.7031Z" fill="#F68820"/>
</g>
<g clip-path="url(#clip19_2645_1094)">
<path d="M40.2832 71.7031C42.7685 71.7031 44.7832 69.6884 44.7832 67.2031C44.7832 64.7178 42.7685 62.7031 40.2832 62.7031C37.7979 62.7031 35.7832 64.7178 35.7832 67.2031C35.7832 69.6884 37.7979 71.7031 40.2832 71.7031Z" fill="#F68820"/>
</g>
<g clip-path="url(#clip20_2645_1094)">
<path d="M40.2832 53.7031C37.7981 53.7031 35.7832 51.6883 35.7832 49.2031V40.2031C35.7832 37.718 37.7981 35.7031 40.2832 35.7031C42.7683 35.7031 44.7832 37.718 44.7832 40.2031V49.2031C44.7832 51.6883 42.7683 53.7031 40.2832 53.7031Z" fill="#F68820"/>
</g>
<g clip-path="url(#clip21_2645_1094)">
<path d="M40.2832 53.7031C37.7981 53.7031 35.7832 51.6883 35.7832 49.2031V40.2031C35.7832 37.718 37.7981 35.7031 40.2832 35.7031C42.7683 35.7031 44.7832 37.718 44.7832 40.2031V49.2031C44.7832 51.6883 42.7683 53.7031 40.2832 53.7031Z" fill="#6FA4D8"/>
</g>
</g>
<defs>
<clipPath id="clip0_2645_1094">
<rect width="66.7514" height="71.4089" fill="white" transform="translate(0.123047 0.294922)"/>
</clipPath>
<clipPath id="clip1_2645_1094">
<rect width="9" height="8.99999" fill="white" transform="translate(33.5332 15.4531)"/>
</clipPath>
<clipPath id="clip2_2645_1094">
<rect width="15.7505" height="18.0001" fill="white" transform="translate(29.0332 35.7031)"/>
</clipPath>
<clipPath id="clip3_2645_1094">
<rect width="15.7499" height="18.0012" fill="white" transform="translate(35.7832 35.7031)"/>
</clipPath>
<clipPath id="clip4_2645_1094">
<rect width="66.7514" height="26.5991" fill="white" transform="translate(0.123047 0.294922)"/>
</clipPath>
<clipPath id="clip5_2645_1094">
<rect width="17.9337" height="14.2842" fill="white" transform="translate(48.9414 12.6094)"/>
</clipPath>
<clipPath id="clip6_2645_1094">
<rect width="13.5" height="13.5" fill="white" transform="translate(48.9414 12.6113)"/>
</clipPath>
<clipPath id="clip7_2645_1094">
<rect width="20.7926" height="11.6665" fill="white" transform="translate(39.4004 12.1953)"/>
</clipPath>
<clipPath id="clip8_2645_1094">
<rect width="20.7236" height="7.23548" fill="white" transform="translate(39.4004 16.627)"/>
</clipPath>
<clipPath id="clip9_2645_1094">
<rect width="23.4338" height="16.134" fill="white" transform="translate(19.0664 6.46094)"/>
</clipPath>
<clipPath id="clip10_2645_1094">
<rect width="23.3303" height="9.48603" fill="white" transform="translate(19.0664 13.1094)"/>
</clipPath>
<clipPath id="clip11_2645_1094">
<rect width="26.936" height="23.2865" fill="white" transform="translate(0.123047 0.294922)"/>
</clipPath>
<clipPath id="clip12_2645_1094">
<rect width="22.5" height="22.5" fill="white" transform="translate(0.125 0.296875)"/>
</clipPath>
<clipPath id="clip13_2645_1094">
<rect width="18" height="18" fill="white" transform="translate(2.375 2.54688)"/>
</clipPath>
<clipPath id="clip14_2645_1094">
<rect width="8.85681" height="8.21873" fill="white" transform="translate(3.36914 2.61719)"/>
</clipPath>
<clipPath id="clip15_2645_1094">
<rect width="9" height="8.99999" fill="white" transform="translate(38.0332 15.4531)"/>
</clipPath>
<clipPath id="clip16_2645_1094">
<rect width="4.5" height="4.49999" fill="white" transform="translate(40.2832 17.7031)"/>
</clipPath>
<clipPath id="clip17_2645_1094">
<rect width="9" height="9" fill="white" transform="translate(15.5332 62.7031)"/>
</clipPath>
<clipPath id="clip18_2645_1094">
<rect width="9" height="9" fill="white" transform="translate(56.0332 62.7031)"/>
</clipPath>
<clipPath id="clip19_2645_1094">
<rect width="9" height="9" fill="white" transform="translate(35.7832 62.7031)"/>
</clipPath>
<clipPath id="clip20_2645_1094">
<rect width="9" height="18" fill="white" transform="translate(35.7832 35.7031)"/>
</clipPath>
<clipPath id="clip21_2645_1094">
<rect width="9" height="18" fill="white" transform="translate(35.7832 35.7031)"/>
</clipPath>
</defs>
</svg>
