<svg width="73" height="72" viewBox="0 0 73 72" fill="none" xmlns="http://www.w3.org/2000/svg">
<g clip-path="url(#clip0_2645_1137)">
<g clip-path="url(#clip1_2645_1137)">
<g clip-path="url(#clip2_2645_1137)">
<path d="M43.2501 43.875V32.625H29.7501V43.875L13.5501 65.475C11.8817 67.7003 13.4691 70.875 16.2501 70.875H56.7501C59.5311 70.875 61.1185 67.7003 59.4501 65.475L43.2501 43.875Z" fill="#6FA4D8"/>
</g>
<g clip-path="url(#clip3_2645_1137)">
<path d="M59.45 65.475L43.25 43.875V32.625H36.5H29.75V35.4375H34.8125C35.744 35.4375 36.5 36.1935 36.5 37.125V43.875L45.5 70.875H56.75C59.531 70.875 61.1184 67.7003 59.45 65.475Z" fill="#5C76B2"/>
</g>
<g clip-path="url(#clip4_2645_1137)">
<path d="M43.25 32.625H29.75C28.5069 32.625 27.5 31.6181 27.5 30.375C27.5 29.1319 28.5069 28.125 29.75 28.125H43.25C44.4931 28.125 45.5 29.1319 45.5 30.375C45.5 31.6181 44.4931 32.625 43.25 32.625Z" fill="#6FA4D8"/>
</g>
<g clip-path="url(#clip5_2645_1137)">
<path d="M43.25 28.125H36.5C37.7431 28.125 38.75 29.1319 38.75 30.375C38.75 31.6181 37.7431 32.625 36.5 32.625H43.25C44.4931 32.625 45.5 31.6181 45.5 30.375C45.5 29.1319 44.4931 28.125 43.25 28.125Z" fill="#5C76B2"/>
</g>
<g clip-path="url(#clip6_2645_1137)">
<path d="M54.5 66.3754H18.5L26.9375 55.1254L26.9386 55.1243C29.3281 51.9361 34.1105 51.9349 36.5011 55.1221L36.5022 55.1232C38.8929 58.3092 43.6707 58.3103 46.0625 55.1254L54.5 66.3754Z" fill="#F68820"/>
</g>
<g clip-path="url(#clip7_2645_1137)">
<path d="M46.0625 55.1254L46.0614 55.1243C43.6719 51.9361 38.8895 51.9349 36.4989 55.1221L36.4977 55.1232C34.1071 58.3092 29.3293 58.3103 26.9375 55.1254L18.5 66.3754H54.5L46.0625 55.1254Z" fill="#FBBE18"/>
</g>
<g clip-path="url(#clip8_2645_1137)">
<path d="M46.0626 55.126L46.0615 55.1248C44.4753 53.0076 41.836 52.3045 39.541 52.9986L44.0005 66.376H54.5001L46.0626 55.126Z" fill="#F68820"/>
</g>
<g clip-path="url(#clip9_2645_1137)">
<path d="M32.5625 62.4375C33.4945 62.4375 34.25 61.682 34.25 60.75C34.25 59.818 33.4945 59.0625 32.5625 59.0625C31.6305 59.0625 30.875 59.818 30.875 60.75C30.875 61.682 31.6305 62.4375 32.5625 62.4375Z" fill="#F68820"/>
</g>
<g clip-path="url(#clip10_2645_1137)">
<path d="M28.625 64.6875C29.2463 64.6875 29.75 64.1838 29.75 63.5625C29.75 62.9412 29.2463 62.4375 28.625 62.4375C28.0037 62.4375 27.5 62.9412 27.5 63.5625C27.5 64.1838 28.0037 64.6875 28.625 64.6875Z" fill="#F68820"/>
</g>
<g clip-path="url(#clip11_2645_1137)">
<path d="M30.875 21.375C33.9816 21.375 36.5 18.8566 36.5 15.75C36.5 12.6434 33.9816 10.125 30.875 10.125C27.7684 10.125 25.25 12.6434 25.25 15.75C25.25 18.8566 27.7684 21.375 30.875 21.375Z" fill="#F68820"/>
</g>
<g clip-path="url(#clip12_2645_1137)">
<path d="M29.1875 15.75C30.1195 15.75 30.875 14.9945 30.875 14.0625C30.875 13.1305 30.1195 12.375 29.1875 12.375C28.2555 12.375 27.5 13.1305 27.5 14.0625C27.5 14.9945 28.2555 15.75 29.1875 15.75Z" fill="#FBBE18"/>
</g>
<g clip-path="url(#clip13_2645_1137)">
<path d="M42.125 25.875C43.989 25.875 45.5 24.364 45.5 22.5C45.5 20.636 43.989 19.125 42.125 19.125C40.261 19.125 38.75 20.636 38.75 22.5C38.75 24.364 40.261 25.875 42.125 25.875Z" fill="#F68820"/>
</g>
<g clip-path="url(#clip14_2645_1137)">
<path d="M41 22.5C41.6213 22.5 42.125 21.9963 42.125 21.375C42.125 20.7537 41.6213 20.25 41 20.25C40.3787 20.25 39.875 20.7537 39.875 21.375C39.875 21.9963 40.3787 22.5 41 22.5Z" fill="#FBBE18"/>
</g>
<g clip-path="url(#clip15_2645_1137)">
<path d="M46.9062 2.53125C46.9062 3.3075 45.5 5.625 45.5 5.625C45.5 5.625 44.0938 3.3075 44.0938 2.53125C44.0938 1.755 44.7237 1.125 45.5 1.125C46.2762 1.125 46.9062 1.755 46.9062 2.53125Z" fill="#F68820"/>
</g>
<g clip-path="url(#clip16_2645_1137)">
<path d="M41.5757 3.98532C42.2484 4.37457 43.5523 6.75057 43.5523 6.75057C43.5523 6.75057 40.8422 6.8102 40.1694 6.42207C39.4978 6.03282 39.2672 5.17332 39.6553 4.50057C40.0434 3.82782 40.904 3.5972 41.5757 3.98532Z" fill="#F68820"/>
</g>
<g clip-path="url(#clip17_2645_1137)">
<path d="M40.1678 9.32789C40.8405 8.93976 43.5507 8.99939 43.5507 8.99939C43.5507 8.99939 42.2468 11.3754 41.574 11.7646C40.9013 12.1528 40.0418 11.9221 39.6525 11.2494C39.2655 10.5766 39.4962 9.71714 40.1678 9.32789Z" fill="#F68820"/>
</g>
<g clip-path="url(#clip18_2645_1137)">
<path d="M44.0938 13.2188C44.0938 12.4425 45.5 10.125 45.5 10.125C45.5 10.125 46.9062 12.4425 46.9062 13.2188C46.9062 13.995 46.2762 14.625 45.5 14.625C44.7237 14.625 44.0938 13.995 44.0938 13.2188Z" fill="#F68820"/>
</g>
<g clip-path="url(#clip19_2645_1137)">
<path d="M49.4258 11.7646C48.7531 11.3754 47.4492 8.99939 47.4492 8.99939C47.4492 8.99939 50.1593 8.93976 50.8321 9.32789C51.5049 9.71601 51.7355 10.5766 51.3474 11.2494C50.9581 11.9221 50.0975 12.1528 49.4258 11.7646Z" fill="#F68820"/>
</g>
<g clip-path="url(#clip20_2645_1137)">
<path d="M50.8321 6.42062C50.1593 6.80874 47.4492 6.74912 47.4492 6.74912C47.4492 6.74912 48.7531 4.37312 49.4258 3.98387C50.0986 3.59462 50.9581 3.82637 51.3462 4.49912C51.7343 5.17187 51.5037 6.03137 50.8321 6.42062Z" fill="#F68820"/>
</g>
</g>
</g>
<defs>
<clipPath id="clip0_2645_1137">
<rect width="72" height="72" fill="white" transform="translate(0.5)"/>
</clipPath>
<clipPath id="clip1_2645_1137">
<rect width="47.2619" height="69.75" fill="white" transform="translate(12.8691 1.125)"/>
</clipPath>
<clipPath id="clip2_2645_1137">
<rect width="47.2619" height="38.25" fill="white" transform="translate(12.8691 32.625)"/>
</clipPath>
<clipPath id="clip3_2645_1137">
<rect width="30.381" height="38.25" fill="white" transform="translate(29.75 32.625)"/>
</clipPath>
<clipPath id="clip4_2645_1137">
<rect width="18" height="4.5" fill="white" transform="translate(27.5 28.125)"/>
</clipPath>
<clipPath id="clip5_2645_1137">
<rect width="9" height="4.5" fill="white" transform="translate(36.5 28.125)"/>
</clipPath>
<clipPath id="clip6_2645_1137">
<rect width="36" height="13.643" fill="white" transform="translate(18.5 52.7324)"/>
</clipPath>
<clipPath id="clip7_2645_1137">
<rect width="36" height="13.643" fill="white" transform="translate(18.5 52.7324)"/>
</clipPath>
<clipPath id="clip8_2645_1137">
<rect width="14.9591" height="13.6357" fill="white" transform="translate(39.541 52.7402)"/>
</clipPath>
<clipPath id="clip9_2645_1137">
<rect width="3.375" height="3.375" fill="white" transform="translate(30.875 59.0625)"/>
</clipPath>
<clipPath id="clip10_2645_1137">
<rect width="2.25" height="2.25" fill="white" transform="translate(27.5 62.4375)"/>
</clipPath>
<clipPath id="clip11_2645_1137">
<rect width="11.25" height="11.25" fill="white" transform="translate(25.25 10.125)"/>
</clipPath>
<clipPath id="clip12_2645_1137">
<rect width="3.375" height="3.375" fill="white" transform="translate(27.5 12.375)"/>
</clipPath>
<clipPath id="clip13_2645_1137">
<rect width="6.75" height="6.75" fill="white" transform="translate(38.75 19.125)"/>
</clipPath>
<clipPath id="clip14_2645_1137">
<rect width="2.25" height="2.25" fill="white" transform="translate(39.875 20.25)"/>
</clipPath>
<clipPath id="clip15_2645_1137">
<rect width="2.8125" height="4.5" fill="white" transform="translate(44.0938 1.125)"/>
</clipPath>
<clipPath id="clip16_2645_1137">
<rect width="4.08548" height="2.95699" fill="white" transform="translate(39.4668 3.79688)"/>
</clipPath>
<clipPath id="clip17_2645_1137">
<rect width="4.08582" height="2.95699" fill="white" transform="translate(39.4648 8.99609)"/>
</clipPath>
<clipPath id="clip18_2645_1137">
<rect width="2.8125" height="4.5" fill="white" transform="translate(44.0938 10.125)"/>
</clipPath>
<clipPath id="clip19_2645_1137">
<rect width="4.08658" height="2.95699" fill="white" transform="translate(47.4492 8.99609)"/>
</clipPath>
<clipPath id="clip20_2645_1137">
<rect width="4.08548" height="2.95749" fill="white" transform="translate(47.4492 3.79492)"/>
</clipPath>
</defs>
</svg>
